<?xml version="1.0" encoding="utf-8"?>
<!-- Generator: Adobe Illustrator 19.2.0, SVG Export Plug-In . SVG Version: 6.00 Build 0)  -->
<svg version="1.1" xmlns="http://www.w3.org/2000/svg" xmlns:xlink="http://www.w3.org/1999/xlink" x="0px" y="0px"
	 viewBox="0 0 230 130" style="enable-background:new 0 0 230 130;" xml:space="preserve">
<style type="text/css">
	.st0{display:none;}
	.st1{display:inline;}
	.st2{display:inline;fill:#FFFFFF;}
	.st3{display:inline;fill:#F2F2F2;}
	.st4{opacity:0.5;fill:#1F91E5;}
	.st5{fill:#FFFFFF;}
	.st6{fill:none;stroke:#FFFFFF;stroke-miterlimit:10;}
</style>
<g id="Home">
	<g>
		<g>
			<path d="M146.1,7.2v28.1c0,0.6-0.5,1.1-1.1,1.1c-0.6,0-1.1-0.5-1.1-1.1V7.2c0-0.6,0.5-1.1,1.1-1.1C145.7,6.2,146.1,6.6,146.1,7.2
				L146.1,7.2z"/>
			<path d="M74,7.2v28.1c0,0.6-0.5,1.1-1.1,1.1c-0.6,0-1.1-0.5-1.1-1.1V7.2c0-0.6,0.5-1.1,1.1-1.1C73.5,6.2,74,6.6,74,7.2L74,7.2z"
				/>
			<path d="M158.2,7.2v28.1c0,0.6-0.5,1.1-1.1,1.1c-0.6,0-1.1-0.5-1.1-1.1V7.2c0-0.6,0.5-1.1,1.1-1.1C157.7,6.2,158.2,6.6,158.2,7.2
				L158.2,7.2z"/>
			<path d="M86,7.2v28.1c0,0.6-0.5,1.1-1.1,1.1c-0.6,0-1.1-0.5-1.1-1.1V7.2c0-0.6,0.5-1.1,1.1-1.1C85.5,6.2,86,6.6,86,7.2L86,7.2z"
				/>
			<path d="M152.2,1.1v28.1c0,0.6-0.5,1.1-1.1,1.1c-0.6,0-1.1-0.5-1.1-1.1V1.1c0-0.6,0.5-1.1,1.1-1.1C151.7,0,152.2,0.5,152.2,1.1
				L152.2,1.1z"/>
			<path d="M80,1.1v28.1c0,0.6-0.5,1.1-1.1,1.1c-0.6,0-1.1-0.5-1.1-1.1V1.1c0-0.6,0.5-1.1,1.1-1.1C79.5,0,80,0.5,80,1.1L80,1.1z"/>
			<path d="M116.1,38v28.1c0,0.6-0.5,1.1-1.1,1.1c-0.6,0-1.1-0.5-1.1-1.1V38c0-0.6,0.5-1.1,1.1-1.1C115.6,37,116.1,37.4,116.1,38
				L116.1,38z"/>
			<path d="M43.9,38v28.1c0,0.6-0.5,1.1-1.1,1.1c-0.6,0-1.1-0.5-1.1-1.1V38c0-0.6,0.5-1.1,1.1-1.1C43.4,37,43.9,37.4,43.9,38
				L43.9,38z"/>
			<path d="M122.1,31.9v28.1c0,0.6-0.5,1.1-1.1,1.1c-0.6,0-1.1-0.5-1.1-1.1V31.9c0-0.6,0.5-1.1,1.1-1.1
				C121.6,30.8,122.1,31.3,122.1,31.9L122.1,31.9z"/>
			<path d="M49.9,31.9v28.1c0,0.6-0.5,1.1-1.1,1.1c-0.6,0-1.1-0.5-1.1-1.1V31.9c0-0.6,0.5-1.1,1.1-1.1
				C49.4,30.8,49.9,31.3,49.9,31.9L49.9,31.9z"/>
			<path d="M128.1,25.7v28.1c0,0.6-0.5,1.1-1.1,1.1c-0.6,0-1.1-0.5-1.1-1.1V25.7c0-0.6,0.5-1.1,1.1-1.1
				C127.6,24.6,128.1,25.1,128.1,25.7L128.1,25.7z"/>
			<path d="M55.9,25.7v28.1c0,0.6-0.5,1.1-1.1,1.1c-0.6,0-1.1-0.5-1.1-1.1V25.7c0-0.6,0.5-1.1,1.1-1.1
				C55.4,24.6,55.9,25.1,55.9,25.7L55.9,25.7z"/>
			<path d="M134.1,19.5v28.1c0,0.6-0.5,1.1-1.1,1.1c-0.6,0-1.1-0.5-1.1-1.1V19.5c0-0.6,0.5-1.1,1.1-1.1
				C133.6,18.5,134.1,19,134.1,19.5L134.1,19.5z"/>
			<path d="M61.9,19.5v28.1c0,0.6-0.5,1.1-1.1,1.1c-0.6,0-1.1-0.5-1.1-1.1V19.5c0-0.6,0.5-1.1,1.1-1.1C61.4,18.5,61.9,19,61.9,19.5
				L61.9,19.5z"/>
			<path d="M140.1,13.4v28.1c0,0.6-0.5,1.1-1.1,1.1c-0.6,0-1.1-0.5-1.1-1.1V13.4c0-0.6,0.5-1.1,1.1-1.1
				C139.6,12.3,140.1,12.8,140.1,13.4L140.1,13.4z"/>
			<path d="M67.9,13.4v28.1c0,0.6-0.5,1.1-1.1,1.1c-0.6,0-1.1-0.5-1.1-1.1V13.4c0-0.6,0.5-1.1,1.1-1.1
				C67.5,12.3,67.9,12.8,67.9,13.4L67.9,13.4z"/>
			<path d="M188.2,38v28.1c0,0.6-0.5,1.1-1.1,1.1c-0.6,0-1.1-0.5-1.1-1.1V38c0-0.6,0.5-1.1,1.1-1.1C187.8,37,188.2,37.4,188.2,38
				L188.2,38z"/>
			<path d="M182.2,31.9v28.1c0,0.6-0.5,1.1-1.1,1.1c-0.6,0-1.1-0.5-1.1-1.1V31.9c0-0.6,0.5-1.1,1.1-1.1
				C181.8,30.8,182.2,31.3,182.2,31.9L182.2,31.9z"/>
			<path d="M110,31.9v28.1c0,0.6-0.5,1.1-1.1,1.1c-0.6,0-1.1-0.5-1.1-1.1V31.9c0-0.6,0.5-1.1,1.1-1.1C109.6,30.8,110,31.3,110,31.9
				L110,31.9z"/>
			<path d="M182.2,65.5v3.8c0,0.6-0.5,1.1-1.1,1.1c-0.6,0-1.1-0.5-1.1-1.1v-3.8c0-0.6,0.5-1.1,1.1-1.1
				C181.8,64.4,182.2,64.9,182.2,65.5L182.2,65.5z"/>
			<path d="M110,65.5v3.8c0,0.6-0.5,1.1-1.1,1.1c-0.6,0-1.1-0.5-1.1-1.1v-3.8c0-0.6,0.5-1.1,1.1-1.1C109.6,64.4,110,64.9,110,65.5
				L110,65.5z"/>
			<path d="M176.2,25.7v28.1c0,0.6-0.5,1.1-1.1,1.1c-0.6,0-1.1-0.5-1.1-1.1V25.7c0-0.6,0.5-1.1,1.1-1.1
				C175.7,24.6,176.2,25.1,176.2,25.7L176.2,25.7z"/>
			<path d="M104,25.7v28.1c0,0.6-0.5,1.1-1.1,1.1c-0.6,0-1.1-0.5-1.1-1.1V25.7c0-0.6,0.5-1.1,1.1-1.1C103.6,24.6,104,25.1,104,25.7
				L104,25.7z"/>
			<path d="M170.2,19.5v28.1c0,0.6-0.5,1.1-1.1,1.1c-0.6,0-1.1-0.5-1.1-1.1V19.5c0-0.6,0.5-1.1,1.1-1.1
				C169.7,18.5,170.2,19,170.2,19.5L170.2,19.5z"/>
			<path d="M98,19.5v28.1c0,0.6-0.5,1.1-1.1,1.1c-0.6,0-1.1-0.5-1.1-1.1V19.5c0-0.6,0.5-1.1,1.1-1.1C97.5,18.5,98,19,98,19.5
				L98,19.5z"/>
			<path d="M164.2,13.4v28.1c0,0.6-0.5,1.1-1.1,1.1c-0.6,0-1.1-0.5-1.1-1.1V13.4c0-0.6,0.5-1.1,1.1-1.1
				C163.7,12.3,164.2,12.8,164.2,13.4L164.2,13.4z"/>
			<path d="M92,13.4v28.1c0,0.6-0.5,1.1-1.1,1.1c-0.6,0-1.1-0.5-1.1-1.1V13.4c0-0.6,0.5-1.1,1.1-1.1C91.5,12.3,92,12.8,92,13.4
				L92,13.4z"/>
			<path d="M116.1,71.7v3.8c0,0.6-0.5,1.1-1.1,1.1c-0.6,0-1.1-0.5-1.1-1.1v-3.8c0-0.6,0.5-1.1,1.1-1.1
				C115.6,70.7,116.1,71.2,116.1,71.7L116.1,71.7z"/>
			<path d="M43.9,71.7v3.8c0,0.6-0.5,1.1-1.1,1.1c-0.6,0-1.1-0.5-1.1-1.1v-3.8c0-0.6,0.5-1.1,1.1-1.1C43.4,70.7,43.9,71.2,43.9,71.7
				L43.9,71.7z"/>
			<path d="M122.1,65.6v3.8c0,0.6-0.5,1.1-1.1,1.1c-0.6,0-1.1-0.5-1.1-1.1v-3.8c0-0.6,0.5-1.1,1.1-1.1
				C121.6,64.5,122.1,65,122.1,65.6L122.1,65.6z"/>
			<path d="M49.9,65.6v3.8c0,0.6-0.5,1.1-1.1,1.1c-0.6,0-1.1-0.5-1.1-1.1v-3.8c0-0.6,0.5-1.1,1.1-1.1C49.4,64.5,49.9,65,49.9,65.6
				L49.9,65.6z"/>
			<path d="M128.1,59.4v3.8c0,0.6-0.5,1.1-1.1,1.1c-0.6,0-1.1-0.5-1.1-1.1v-3.8c0-0.6,0.5-1.1,1.1-1.1
				C127.6,58.4,128.1,58.8,128.1,59.4L128.1,59.4z"/>
			<path d="M55.9,59.4v3.8c0,0.6-0.5,1.1-1.1,1.1c-0.6,0-1.1-0.5-1.1-1.1v-3.8c0-0.6,0.5-1.1,1.1-1.1C55.4,58.4,55.9,58.8,55.9,59.4
				L55.9,59.4z"/>
			<path d="M134.1,53.3v3.8c0,0.6-0.5,1.1-1.1,1.1c-0.6,0-1.1-0.5-1.1-1.1v-3.8c0-0.6,0.5-1.1,1.1-1.1
				C133.6,52.2,134.1,52.7,134.1,53.3L134.1,53.3z"/>
			<path d="M61.9,53.3v3.8c0,0.6-0.5,1.1-1.1,1.1c-0.6,0-1.1-0.5-1.1-1.1v-3.8c0-0.6,0.5-1.1,1.1-1.1C61.4,52.2,61.9,52.7,61.9,53.3
				L61.9,53.3z"/>
			<path d="M140.1,47.1v3.8c0,0.6-0.5,1.1-1.1,1.1c-0.6,0-1.1-0.5-1.1-1.1v-3.8c0-0.6,0.5-1.1,1.1-1.1
				C139.6,46,140.1,46.5,140.1,47.1L140.1,47.1z"/>
			<path d="M67.9,47.1v3.8c0,0.6-0.5,1.1-1.1,1.1c-0.6,0-1.1-0.5-1.1-1.1v-3.8c0-0.6,0.5-1.1,1.1-1.1C67.5,46,67.9,46.5,67.9,47.1
				L67.9,47.1z"/>
			<path d="M146.1,40.9v3.8c0,0.6-0.5,1.1-1.1,1.1c-0.6,0-1.1-0.5-1.1-1.1v-3.8c0-0.6,0.5-1.1,1.1-1.1
				C145.7,39.9,146.1,40.4,146.1,40.9L146.1,40.9z"/>
			<path d="M74,40.9v3.8c0,0.6-0.5,1.1-1.1,1.1c-0.6,0-1.1-0.5-1.1-1.1v-3.8c0-0.6,0.5-1.1,1.1-1.1C73.5,39.9,74,40.4,74,40.9
				L74,40.9z"/>
			<path d="M188.2,71.7v3.8c0,0.6-0.5,1.1-1.1,1.1c-0.6,0-1.1-0.5-1.1-1.1v-3.8c0-0.6,0.5-1.1,1.1-1.1
				C187.8,70.7,188.2,71.2,188.2,71.7L188.2,71.7z"/>
			<path d="M176.2,59.4v3.8c0,0.6-0.5,1.1-1.1,1.1c-0.6,0-1.1-0.5-1.1-1.1v-3.8c0-0.6,0.5-1.1,1.1-1.1
				C175.7,58.4,176.2,58.8,176.2,59.4L176.2,59.4z"/>
			<path d="M104,59.4v3.8c0,0.6-0.5,1.1-1.1,1.1c-0.6,0-1.1-0.5-1.1-1.1v-3.8c0-0.6,0.5-1.1,1.1-1.1C103.6,58.4,104,58.8,104,59.4
				L104,59.4z"/>
			<path d="M170.2,53.3v3.8c0,0.6-0.5,1.1-1.1,1.1c-0.6,0-1.1-0.5-1.1-1.1v-3.8c0-0.6,0.5-1.1,1.1-1.1
				C169.7,52.2,170.2,52.7,170.2,53.3L170.2,53.3z"/>
			<path d="M98,53.3v3.8c0,0.6-0.5,1.1-1.1,1.1c-0.6,0-1.1-0.5-1.1-1.1v-3.8c0-0.6,0.5-1.1,1.1-1.1C97.5,52.2,98,52.7,98,53.3
				L98,53.3z"/>
			<path d="M164.2,47.1v3.8c0,0.6-0.5,1.1-1.1,1.1c-0.6,0-1.1-0.5-1.1-1.1v-3.8c0-0.6,0.5-1.1,1.1-1.1
				C163.7,46,164.2,46.5,164.2,47.1L164.2,47.1z"/>
			<path d="M92,47.1v3.8c0,0.6-0.5,1.1-1.1,1.1c-0.6,0-1.1-0.5-1.1-1.1v-3.8c0-0.6,0.5-1.1,1.1-1.1C91.5,46,92,46.5,92,47.1L92,47.1
				z"/>
			<path d="M158.2,40.9v3.8c0,0.6-0.5,1.1-1.1,1.1c-0.6,0-1.1-0.5-1.1-1.1v-3.8c0-0.6,0.5-1.1,1.1-1.1
				C157.7,39.9,158.2,40.4,158.2,40.9L158.2,40.9z"/>
			<path d="M86,40.9v3.8c0,0.6-0.5,1.1-1.1,1.1c-0.6,0-1.1-0.5-1.1-1.1v-3.8c0-0.6,0.5-1.1,1.1-1.1C85.5,39.9,86,40.4,86,40.9
				L86,40.9z"/>
			<path d="M152.2,34.8v3.8c0,0.6-0.5,1.1-1.1,1.1c-0.6,0-1.1-0.5-1.1-1.1v-3.8c0-0.6,0.5-1.1,1.1-1.1
				C151.7,33.7,152.2,34.2,152.2,34.8L152.2,34.8z"/>
			<path d="M80,34.8v3.8c0,0.6-0.5,1.1-1.1,1.1c-0.6,0-1.1-0.5-1.1-1.1v-3.8c0-0.6,0.5-1.1,1.1-1.1C79.5,33.7,80,34.2,80,34.8
				L80,34.8z"/>
		</g>
		<g>
			<path d="M3.9,105.6c0-0.3,0.3-0.5,0.6-0.5h0.5c0.2,0,0.5,0.1,0.6,0.3l8,14.8h0.1l8-14.8c0.1-0.2,0.4-0.3,0.6-0.3h0.5
				c0.3,0,0.6,0.2,0.6,0.5l3.9,23.1c0.1,0.4-0.2,0.8-0.7,0.8h-4.1c-0.3,0-0.6-0.3-0.7-0.5l-1.5-10.6h-0.1l-5.8,11.1
				c-0.1,0.2-0.4,0.4-0.6,0.4h-0.6c-0.2,0-0.5-0.2-0.6-0.4l-5.8-11.1H6.9l-1.5,10.6c0,0.3-0.3,0.5-0.7,0.5H0.7
				c-0.4,0-0.7-0.3-0.7-0.8L3.9,105.6z"/>
			<path d="M39.1,128.6l10.7-23.1c0.1-0.2,0.3-0.4,0.6-0.4h0.3c0.2,0,0.5,0.2,0.6,0.4l10.7,23.1c0.2,0.4-0.1,0.9-0.6,0.9h-3.8
				c-0.6,0-0.9-0.2-1.2-0.9l-1.2-2.7H46l-1.2,2.7c-0.2,0.4-0.5,0.8-1.2,0.8h-3.8C39.2,129.5,38.9,129,39.1,128.6z M53.2,121.2
				l-2.6-5.7h0l-2.6,5.7H53.2z"/>
			<path d="M76.1,110.5h-4.9c-0.4,0-0.7-0.3-0.7-0.7v-3.7c0-0.3,0.3-0.7,0.7-0.7h15.2c0.4,0,0.7,0.3,0.7,0.7v3.7
				c0,0.3-0.3,0.7-0.7,0.7h-4.9v18.3c0,0.3-0.3,0.7-0.7,0.7h-4.1c-0.3,0-0.7-0.3-0.7-0.7V110.5z"/>
			<path d="M99.8,106.1c0-0.3,0.3-0.7,0.7-0.7h14.2c0.4,0,0.7,0.3,0.7,0.7v3.7c0,0.3-0.3,0.7-0.7,0.7h-9.5v4.3h7.8
				c0.3,0,0.7,0.3,0.7,0.7v3.7c0,0.4-0.3,0.7-0.7,0.7h-7.8v4.6h9.5c0.4,0,0.7,0.3,0.7,0.7v3.7c0,0.3-0.3,0.7-0.7,0.7h-14.2
				c-0.4,0-0.7-0.3-0.7-0.7V106.1z"/>
			<path d="M129.8,106.1c0-0.3,0.3-0.7,0.7-0.7h10.3c4.1,0,7.5,3.3,7.5,7.4c0,3.2-2.1,5.7-5.1,6.9l4.7,8.7c0.2,0.4,0,1-0.6,1h-4.6
				c-0.3,0-0.5-0.2-0.5-0.3l-4.6-9.1h-2.4v8.8c0,0.3-0.3,0.7-0.7,0.7h-4.1c-0.4,0-0.7-0.3-0.7-0.7V106.1z M140.3,115.7
				c1.4,0,2.6-1.3,2.6-2.7c0-1.4-1.2-2.6-2.6-2.6h-5.1v5.4H140.3z"/>
			<path d="M162.5,106.1c0-0.3,0.3-0.7,0.7-0.7h4.1c0.3,0,0.7,0.3,0.7,0.7v22.7c0,0.3-0.3,0.7-0.7,0.7h-4.1c-0.3,0-0.7-0.3-0.7-0.7
				V106.1z"/>
			<path d="M180.3,128.6l10.7-23.1c0.1-0.2,0.3-0.4,0.6-0.4h0.3c0.2,0,0.5,0.2,0.6,0.4l10.7,23.1c0.2,0.4-0.1,0.9-0.6,0.9h-3.8
				c-0.6,0-0.9-0.2-1.2-0.9l-1.2-2.7h-9.3l-1.2,2.7c-0.2,0.4-0.5,0.8-1.2,0.8h-3.8C180.4,129.5,180.1,129,180.3,128.6z M194.4,121.2
				l-2.6-5.7h0l-2.6,5.7H194.4z"/>
			<path d="M215.8,106.1c0-0.3,0.3-0.7,0.7-0.7h4.1c0.3,0,0.7,0.3,0.7,0.7v18.3h8.2c0.4,0,0.7,0.3,0.7,0.7v3.7
				c0,0.3-0.3,0.7-0.7,0.7h-12.9c-0.4,0-0.7-0.3-0.7-0.7V106.1z"/>
		</g>
	</g>
</g>
<g id="Home_copy" class="st0">
</g>
<g id="Layer_3" class="st0">
</g>
<g id="Case_Study" class="st0">
</g>
<g id="Case_Study_copy_2" class="st0">
</g>
<g id="Case_Study_copy" class="st0">
</g>
<g id="Arrows" class="st0">
</g>
<g id="Layer_8">
</g>
</svg>
